<?xml version="1.0" encoding="UTF-8" standalone="no"?>
<svg
   xmlns:dc="http://purl.org/dc/elements/1.1/"
   xmlns:cc="http://creativecommons.org/ns#"
   xmlns:rdf="http://www.w3.org/1999/02/22-rdf-syntax-ns#"
   xmlns:svg="http://www.w3.org/2000/svg"
   xmlns="http://www.w3.org/2000/svg"
   xmlns:sodipodi="http://sodipodi.sourceforge.net/DTD/sodipodi-0.dtd"
   xmlns:inkscape="http://www.inkscape.org/namespaces/inkscape"
   inkscape:export-ydpi="130"
   inkscape:export-xdpi="130"
   inkscape:export-filename="/Users/anilbhattarai/projects/personal/djangoapps/dranil/portfolio/staticfiles/images/ab_logo.png"
   sodipodi:docname="ab_logo.svg"
   inkscape:version="1.0beta2 (2b71d25, 2019-12-03)"
   id="svg8"
   version="1.1"
   viewBox="0 0 158.75 158.75"
   height="600"
   width="600">
  <defs
     id="defs2" />
  <sodipodi:namedview
     inkscape:window-maximized="0"
     inkscape:window-y="23"
     inkscape:window-x="0"
     inkscape:window-height="880"
     inkscape:window-width="1204"
     units="px"
     showgrid="false"
     inkscape:document-rotation="0"
     inkscape:current-layer="layer1"
     inkscape:document-units="mm"
     inkscape:cy="560"
     inkscape:cx="400"
     inkscape:zoom="0.35"
     inkscape:pageshadow="2"
     inkscape:pageopacity="0.0"
     borderopacity="1.0"
     bordercolor="#666666"
     pagecolor="#ffffff"
     id="base" />
  <metadata
     id="metadata5">
    <rdf:RDF>
      <cc:Work
         rdf:about="">
        <dc:format>image/svg+xml</dc:format>
        <dc:type
           rdf:resource="http://purl.org/dc/dcmitype/StillImage" />
        <dc:title></dc:title>
      </cc:Work>
    </rdf:RDF>
  </metadata>
  <g
     id="layer1"
     inkscape:groupmode="layer"
     inkscape:label="Layer 1">
    <circle
       r="0.50346428"
       cy="321.27975"
       cx="225.2738"
       style="fill:#000080;stroke:#000000"
       id="path839" />
    <circle
       inkscape:export-ydpi="130"
       inkscape:export-xdpi="130"
       r="0.50346428"
       cy="207.8869"
       cx="190.5"
       style="fill:#000080;stroke:#000000"
       id="path841" />
    <circle
       r="0.50346428"
       cy="372.68451"
       cx="131.53571"
       style="fill:#000080;stroke:#000000"
       id="path861" />
    <circle
       r="0.50346428"
       cy="69.547623"
       cx="-61.232143"
       style="fill:#000080;stroke:#000000"
       id="path877" />
    <path
       transform="matrix(1.5998827,0,0,1.7586585,-39.653179,-60.590731)"
       d="m 70.908348,84.893478 c 2.577352,1.099167 -0.21008,4.01651 -1.826887,4.283729 -4.381448,0.724149 -7.099551,-4.168025 -6.740571,-7.937503 0.642132,-6.742713 7.874826,-10.41036 14.04812,-9.197413 9.059558,1.780049 13.791271,11.621785 11.654254,20.158737 C 85.194957,103.57944 72.661593,109.4014 61.773911,106.31212 48.072874,102.42459 41.150204,87.164728 45.205974,73.932154 50.118054,57.905734 68.122318,49.876927 83.69656,54.907375 c 18.35371,5.928208 27.49187,26.68729 21.48162,44.601203 C 98.239106,120.1909 74.718609,130.44052 54.466361,123.44704 31.45447,115.50061 20.091958,89.214246 28.071057,66.624604 37.022402,41.282439 66.077762,28.805996 91.00411,37.772459 c 27.67297,9.954473 41.26412,41.781134 31.30899,69.043671"
       sodipodi:t0="0"
       sodipodi:argument="-18.44644"
       sodipodi:radius="55.884262"
       sodipodi:revolution="3"
       sodipodi:expansion="1"
       sodipodi:cy="84.893478"
       sodipodi:cx="70.908348"
       id="path919"
       style="fill:#ffffff;fill-rule:evenodd;stroke:#000000;stroke-width:0.264583"
       sodipodi:type="spiral" />
  </g>
</svg>
